<svg width="179" height="47" viewBox="0 0 179 47" fill="none" xmlns="http://www.w3.org/2000/svg">
<path d="M0.936416 44.4605C0.310898 43.8349 0 43.0177 0 42.0031V13.1641C0 12.1513 0.310898 11.3415 0.936416 10.7365C1.55821 10.1314 2.3792 9.82983 3.39195 9.82983H22.7551C22.9506 10.0644 23.1144 10.3958 23.254 10.824C23.3899 11.254 23.4588 11.7213 23.4588 12.2277C23.4588 13.0859 23.254 13.7486 22.8445 14.2159C22.4349 14.6832 21.8801 14.9178 21.1783 14.9178H6.2012V24.6282H21.0014C21.1969 24.8628 21.3607 25.1941 21.4985 25.6223C21.6362 26.0524 21.7033 26.5196 21.7033 27.026C21.7033 27.9233 21.4985 28.5861 21.0889 29.0143C20.6793 29.4443 20.1227 29.6584 19.4227 29.6584H6.2012V40.3052H23.0474C23.2019 40.5398 23.3601 40.8712 23.5165 41.2994C23.671 41.7294 23.7511 42.1967 23.7511 42.7031C23.7511 43.6004 23.5463 44.2724 23.1367 44.7211C22.7272 45.1698 22.1705 45.3932 21.4687 45.3932H3.39195C2.3792 45.395 1.55821 45.0841 0.936416 44.4605Z" fill="#FFCC00"/>
<path d="M36.4423 45.2198C36.1705 45.3371 35.7889 45.4432 35.3011 45.5419C34.8134 45.6387 34.2772 45.6871 33.6926 45.6871C32.5607 45.6871 31.723 45.473 31.1775 45.0448C30.6321 44.6166 30.3584 43.8943 30.3584 42.8797V23.6934C30.3584 22.7179 30.5539 21.9286 30.943 21.3235C31.332 20.7185 31.9557 20.1451 32.8158 19.5978C33.9458 18.8959 35.3886 18.3114 37.1442 17.8422C38.8978 17.3749 40.8302 17.1404 42.9358 17.1404C46.3668 17.1404 48.0833 18.1159 48.0833 20.0651C48.0833 20.5323 48.0051 20.9717 47.8487 21.3812C47.6923 21.7908 47.5173 22.152 47.3219 22.4629C46.9328 22.3847 46.445 22.3084 45.8605 22.2283C45.2759 22.1501 44.6504 22.111 43.9895 22.111C42.4294 22.111 41.0052 22.2767 39.7188 22.6081C38.4324 22.9395 37.3396 23.3602 36.4423 23.8666V45.2198Z" fill="#FFCC00"/>
<path d="M62.8835 17.1404C66.5101 17.1404 69.3975 17.9297 71.5421 19.5103C73.6868 21.089 74.7591 23.5761 74.7591 26.9681V40.5973C74.7591 41.4946 74.5543 42.1872 74.1447 42.6731C73.7352 43.1608 73.1785 43.6188 72.4785 44.047C71.4639 44.6315 70.157 45.1398 68.5597 45.568C66.9587 45.9961 65.1082 46.2102 63.0027 46.2102C59.2198 46.2102 56.2653 45.4693 54.1412 43.9874C52.0152 42.5055 50.9521 40.3218 50.9521 37.4362C50.9521 34.8634 51.7806 32.8938 53.4393 31.5273C55.0962 30.1627 57.4847 29.325 60.6049 29.0122L68.7366 28.1931V26.9067C68.7366 25.1902 68.18 23.9429 67.0704 23.1629C65.959 22.3828 64.4082 21.9937 62.42 21.9937C60.8599 21.9937 59.3576 22.2078 57.9166 22.6379C56.472 23.0661 55.1856 23.5538 54.0555 24.0993C53.6664 23.7865 53.3332 23.4067 53.0614 22.9581C52.7896 22.5094 52.6518 22.0123 52.6518 21.4669C52.6518 20.8041 52.8175 20.2587 53.1508 19.8286C53.4803 19.4004 53.9997 19.03 54.6997 18.7172C55.7906 18.1717 57.0398 17.7715 58.4435 17.5183C59.8416 17.2688 61.3235 17.1404 62.8835 17.1404ZM63.0008 41.4165C64.3654 41.4165 65.555 41.2806 66.5696 41.0069C67.5824 40.7351 68.3047 40.4428 68.7329 40.13V32.7001L62.3567 33.3443C60.562 33.5398 59.2179 33.94 58.3206 34.5432C57.4233 35.1482 56.9746 36.0753 56.9746 37.3227C56.9746 38.6091 57.4624 39.6144 58.4379 40.3348C59.4134 41.0572 60.9325 41.4165 63.0008 41.4165Z" fill="#FFCC00"/>
<path d="M119.625 17.1404C123.251 17.1404 126.139 17.9297 128.283 19.5103C130.428 21.089 131.5 23.5761 131.5 26.9681V40.5973C131.5 41.4946 131.296 42.1872 130.886 42.6731C130.476 43.1608 129.92 43.6188 129.22 44.047C128.205 44.6315 126.898 45.1398 125.301 45.568C123.7 45.9961 121.849 46.2102 119.744 46.2102C115.961 46.2102 113.007 45.4693 110.882 43.9874C108.756 42.5055 107.693 40.3218 107.693 37.4362C107.693 34.8634 108.522 32.8938 110.181 31.5273C111.837 30.1627 114.226 29.325 117.346 29.0122L125.478 28.1931V26.9067C125.478 25.1902 124.921 23.9429 123.812 23.1629C122.7 22.3828 121.149 21.9937 119.161 21.9937C117.601 21.9937 116.099 22.2078 114.658 22.6379C113.213 23.0661 111.927 23.5538 110.797 24.0993C110.408 23.7865 110.074 23.4067 109.803 22.9581C109.531 22.5094 109.393 22.0123 109.393 21.4669C109.393 20.8041 109.559 20.2587 109.892 19.8286C110.221 19.4004 110.741 19.03 111.441 18.7172C112.532 18.1717 113.781 17.7715 115.185 17.5183C116.585 17.2688 118.067 17.1404 119.625 17.1404ZM119.742 41.4165C121.107 41.4165 122.296 41.2806 123.311 41.0069C124.324 40.7351 125.046 40.4428 125.474 40.13V32.7001L119.098 33.3443C117.303 33.5398 115.959 33.94 115.062 34.5432C114.164 35.1482 113.716 36.0753 113.716 37.3227C113.716 38.6091 114.204 39.6144 115.179 40.3348C116.155 41.0572 117.676 41.4165 119.742 41.4165Z" fill="#0E9749"/>
<path d="M156.216 23.3993C155.143 22.5038 153.691 22.0533 151.858 22.0533C150.493 22.0533 149.275 22.2283 148.201 22.5802C147.129 22.9301 146.202 23.3211 145.422 23.7493V45.2198C145.15 45.3371 144.768 45.4432 144.281 45.5419C143.793 45.6387 143.257 45.6871 142.672 45.6871C141.54 45.6871 140.702 45.473 140.157 45.0448C139.612 44.6166 139.338 43.8943 139.338 42.8797V23.5761C139.338 22.6788 139.513 21.9584 139.865 21.411C140.215 20.8656 140.801 20.3201 141.618 19.7728C142.709 19.11 144.134 18.5068 145.889 17.9595C147.643 17.414 149.633 17.1404 151.856 17.1404C155.639 17.1404 158.602 17.9893 160.747 19.6853C162.892 21.3812 163.966 23.9466 163.966 27.3777V45.2198C163.692 45.3371 163.301 45.4432 162.797 45.5419C162.288 45.6387 161.743 45.6871 161.158 45.6871C160.027 45.6871 159.189 45.473 158.643 45.0448C158.098 44.6166 157.824 43.8943 157.824 42.8797V27.6122C157.824 25.7022 157.288 24.2985 156.216 23.3993Z" fill="#0E9749"/>
<path d="M171.63 9.53731C171.63 8.52271 171.98 7.67565 172.684 6.99242C173.385 6.31105 174.281 5.96851 175.374 5.96851C176.465 5.96851 177.343 6.31105 178.006 6.99242C178.669 7.67565 179 8.52271 179 9.53731C179 10.5519 178.669 11.399 178.006 12.0822C177.343 12.7654 176.465 13.1061 175.374 13.1061C174.281 13.1061 173.385 12.7654 172.684 12.0822C171.98 11.399 171.63 10.5501 171.63 9.53731ZM178.414 45.2198C178.142 45.3371 177.76 45.4432 177.273 45.5419C176.785 45.6387 176.23 45.6871 175.606 45.6871C174.475 45.6871 173.637 45.473 173.091 45.0448C172.546 44.6166 172.272 43.8943 172.272 42.8797V18.1363C172.583 18.0581 172.981 17.9613 173.471 17.844C173.959 17.7268 174.514 17.6691 175.137 17.6691C176.269 17.6691 177.098 17.8831 177.624 18.3132C178.151 18.7432 178.414 19.4823 178.414 20.536V45.2198Z" fill="#0E9749"/>
<path d="M95.3528 8.60289C95.2839 8.61592 95.2169 8.57869 95.1908 8.51167C94.9842 7.97737 94.7273 7.45425 94.394 6.92181C93.5097 5.50881 92.3723 4.4458 90.9518 3.4796C89.3471 2.38866 86.454 0.845347 84.3299 0.435781C81.0254 -0.200907 72.8956 -0.320053 68.2135 1.33124C61.586 3.66763 59.6089 5.66891 56.6135 7.93455C56.4161 8.08349 56.4887 8.38135 56.7345 8.37949C63.5798 8.33295 66.2848 8.4763 69.1741 9.19118C72.2384 9.95073 75.2859 10.9746 77.2518 11.8254C78.851 12.518 80.2231 14.307 81.5672 15.236C82.4533 15.6511 82.5483 15.8373 83.4381 15.6977C81.6081 10.5837 77.5888 7.08005 75.5987 6.18273C75.1649 5.98726 74.828 5.76944 74.357 5.71359C76.254 5.5386 78.1194 6.27023 79.8005 7.16941C81.6696 8.16912 83.4326 9.40899 84.84 10.9951C86.2437 12.5775 87.2788 14.523 87.5915 16.6136H87.5952C87.8615 20.5939 87.8131 25.8959 87.7442 31.6782C87.6511 39.3557 85.5307 44.1513 85.0261 45.1845C84.9759 45.2851 85.0541 45.3949 85.1676 45.3949H96.1123C96.2259 45.3949 96.3041 45.2851 96.2538 45.1827C95.8108 44.2816 94.1111 40.6309 93.5507 36.7103C92.9047 32.1883 93.0462 29.5578 93.1616 24.44C93.2212 21.8077 93.6698 19.0021 94.1427 16.7216C94.273 16.7514 94.4033 16.783 94.5337 16.8054C96.1477 17.0865 97.8158 16.8966 99.4242 16.5987C105.214 15.5264 111.14 12.6892 117.034 12.9294C117.19 12.935 117.259 12.7321 117.125 12.6483C110.873 8.75555 102.82 7.25132 95.3528 8.60289Z" fill="#0E9749"/>
</svg>
