<svg width="48" height="48" viewBox="0 0 48 48" fill="none" xmlns="http://www.w3.org/2000/svg">
<circle cx="24" cy="24" r="24" fill="#FFCD00"/>
<path d="M16.9829 19.197C18.1913 19.197 19.1709 18.2174 19.1709 17.009C19.1709 15.8006 18.1913 14.821 16.9829 14.821C15.7745 14.821 14.7949 15.8006 14.7949 17.009C14.7949 18.2174 15.7745 19.197 16.9829 19.197Z" fill="#121212"/>
<path d="M21.2372 20.855V32.994H25.0062V26.991C25.0062 25.407 25.3042 23.873 27.2682 23.873C29.2052 23.873 29.2292 25.684 29.2292 27.091V32.995H33.0002V26.338C33.0002 23.068 32.2962 20.555 28.4742 20.555C26.6392 20.555 25.4092 21.562 24.9062 22.515H24.8552V20.855H21.2372ZM15.0952 20.855H18.8702V32.994H15.0952V20.855Z" fill="#121212"/>
</svg>
